<svg width="40" height="40" viewBox="0 0 40 40" fill="none" xmlns="http://www.w3.org/2000/svg">
<rect width="40" height="40" rx="20" fill="#D6D6D6"/>
<path d="M15.287 27.5095C15.287 27.5095 15.4635 27.5095 15.5036 27.5095H15.7203H25.348C25.7161 27.516 26.0818 27.4484 26.4234 27.3109C26.765 27.1733 27.0755 26.9685 27.3366 26.7086C27.5977 26.4487 27.8041 26.139 27.9435 25.7978C28.0829 25.4567 28.1524 25.0909 28.1481 24.7224C28.1132 24.0461 27.8212 23.4088 27.3318 22.9413C26.8424 22.4738 26.1929 22.2115 25.5165 22.2083H15.8005C15.3443 22.2178 14.8914 22.1299 14.4719 21.9503C14.0524 21.7707 13.676 21.5037 13.3677 21.1669C13.0595 20.8302 12.8265 20.4315 12.6843 19.9975C12.5421 19.5635 12.4939 19.1042 12.5431 18.6501C12.5594 18.5176 12.5835 18.3862 12.6153 18.2565C12.8312 17.5158 13.2859 16.8675 13.9086 16.4127C14.5312 15.9579 15.2867 15.7222 16.0572 15.7425H21.521C22.9009 15.7425 23.5829 15.7425 24.0242 15.7987C25.2409 15.8977 26.4292 16.2189 27.5303 16.7465C31.59 18.7706 33.0823 24.8188 31.1808 28.7545C30.4752 30.1755 29.382 31.3674 28.0277 32.1922C26.4948 33.13 24.7125 33.5771 22.919 33.4737C21.1255 33.3704 19.4062 32.7215 17.9908 31.6139C17.3358 31.1016 16.76 30.4953 16.2819 29.8147C15.7475 29.1904 15.3925 28.4325 15.2549 27.622C15.2549 27.622 15.2549 27.622 15.2549 27.5738C15.2555 27.5614 15.2586 27.5493 15.2641 27.5382C15.2697 27.5272 15.2775 27.5174 15.287 27.5095V27.5095Z" fill="white"/>
<path d="M26.3958 22.3648C26.0997 22.2458 25.8755 22.228 25.5565 22.2249H24.0877H15.8347C15.4049 22.2186 14.9467 22.1749 14.5523 22.0037C14.1579 21.8325 13.8012 21.5848 13.5029 21.2749C13.2046 20.9651 12.9705 20.5991 12.8141 20.1983C12.6577 19.7974 12.5821 19.3695 12.5916 18.9392C12.5881 18.9125 12.5881 18.8855 12.5916 18.8589C12.6911 17.9915 13.1092 17.1921 13.7646 16.6162C14.42 16.0402 15.2659 15.7288 16.1379 15.7424H22.067C23.9479 15.7424 25.839 16.0701 27.5949 16.7384C27.4155 15.0552 26.8113 13.4454 25.839 12.0605C24.8668 10.6757 23.5585 9.56119 22.0374 8.82208C20.5163 8.08297 18.8323 7.74351 17.144 7.83565C15.4557 7.9278 13.8185 8.44851 12.3867 9.34878C10.9548 10.2491 9.77532 11.4993 8.95922 12.9818C8.14313 14.4643 7.71726 16.1303 7.72171 17.823C7.72617 19.5157 8.16079 21.1795 8.98468 22.6576C9.80856 24.1358 10.9946 25.3798 12.4312 26.2725C13.0789 26.6811 13.7706 27.0152 14.4931 27.2685C15.5108 27.5342 16.5654 27.6292 17.6141 27.5496H25.6373C26.2539 27.545 26.8496 27.3251 27.3216 26.9278C27.7936 26.5305 28.1122 25.9807 28.2225 25.3733C28.3328 24.7659 28.2279 24.139 27.9258 23.6007C27.6238 23.0625 27.1435 22.6467 26.5679 22.4251L26.3958 22.3648Z" fill="#898989"/>
</svg>
